# xmcd
#
# Track frame offsets: 
#        150
#        13379
#        29938
#        55548
#        76280
#        95807
#        115433
#        132570
#        147793
#        169994
#        183932
#        194213
#        213246
#
# Disc length: 3007 seconds
#
# Revision: 0
# Processed by: cddbd v1.5.2PL0 Copyright (c) Steve Scherf et al.
# Submitted via: ExactAudioCopy v0.99pb4
#
DISCID=ca0bbd0d
DTITLE=One Horse Shy - One Horse Shy
DYEAR=2008
DGENRE=Country
TTITLE0=Honey in My Tea
TTITLE1=Christmas Lights
TTITLE2=Dead End Road
TTITLE3=395
TTITLE4=Just Me and You
TTITLE5=Train Goes By
TTITLE6=California
TTITLE7=Ride This Freeway
TTITLE8=Purple Flowers
TTITLE9=Sit Beside Me
TTITLE10=Mandagrass
TTITLE11=Nothing Left of Mine
TTITLE12=Wikipedia
EXTD=
EXTT0=
EXTT1=
EXTT2=
EXTT3=
EXTT4=
EXTT5=
EXTT6=
EXTT7=
EXTT8=
EXTT9=
EXTT10=
EXTT11=
EXTT12=
PLAYORDER=
